<svg xmlns="http://www.w3.org/2000/svg" xmlns:xlink="http://www.w3.org/1999/xlink" width="20" height="20" viewBox="0 0 20 20"><defs><path id="waesa" d="M31.64 28.996l7.99-7.999a1.175 1.175 0 0 0 0-1.66 1.17 1.17 0 0 0-1.658 0l-7.99 8-7.99-8a1.171 1.171 0 0 0-1.66 0 1.176 1.176 0 0 0 0 1.66l7.992 8-7.991 8a1.176 1.176 0 0 0 0 1.66 1.17 1.17 0 0 0 1.658 0l7.99-8 7.99 8a1.17 1.17 0 0 0 1.658 0 1.174 1.174 0 0 0 0-1.66z"/></defs><g><g transform="translate(-20 -19)"><use fill="#fff" xlink:href="#waesa"/></g></g></svg>